<svg xmlns="http://www.w3.org/2000/svg" xmlns:xlink="http://www.w3.org/1999/xlink" width="100" zoomAndPan="magnify" viewBox="0 0 75 74.999997" height="100" preserveAspectRatio="xMidYMid meet" version="1.0"><defs><clipPath id="ca0bcab7a6"><path d="M 0 14.089844 L 74.996094 14.089844 L 74.996094 60.589844 L 0 60.589844 Z M 0 14.089844 " clip-rule="nonzero"/></clipPath><clipPath id="bdc67f70d3"><path d="M 22.5 22.5 L 52.5 22.5 L 52.5 52.5 L 22.5 52.5 Z M 22.5 22.5 " clip-rule="nonzero"/></clipPath></defs><g clip-path="url(#ca0bcab7a6)"><path fill="#a6a6a6" d="M -0.015625 37.519531 C -0.015625 24.777344 10.332031 14.429688 23.078125 14.429688 L 74.972656 14.429688 L 74.972656 60.613281 L 23.078125 60.613281 C 10.332031 60.613281 -0.015625 50.265625 -0.015625 37.519531 Z M -0.015625 37.519531 " fill-opacity="1" fill-rule="nonzero"/></g><g clip-path="url(#bdc67f70d3)"><path fill="#ffffff" d="M 25.464844 52.5 C 24.96875 52.5 24.476562 52.375 23.980469 52.128906 C 23.117188 51.636719 22.5 50.773438 22.5 49.785156 L 22.5 25.214844 C 22.5 24.226562 23.117188 23.363281 23.980469 22.992188 C 24.84375 22.5 26.082031 22.5 26.945312 22.992188 L 51.019531 35.339844 C 51.882812 35.832031 52.5 36.699219 52.5 37.5625 C 52.5 38.550781 51.882812 39.414062 51.019531 39.785156 L 26.945312 52.128906 C 26.449219 52.375 25.957031 52.5 25.464844 52.5 Z M 28.425781 29.785156 L 28.425781 45.214844 L 43.609375 37.4375 Z M 28.425781 29.785156 " fill-opacity="1" fill-rule="nonzero"/></g></svg>