<svg xmlns="http://www.w3.org/2000/svg" xmlns:xlink="http://www.w3.org/1999/xlink" width="100" zoomAndPan="magnify" viewBox="0 0 75 74.999997" height="100" preserveAspectRatio="xMidYMid meet" version="1.0"><defs><clipPath id="877b0529d0"><path d="M 0.742188 14.542969 L 74.992188 14.542969 L 74.992188 60.292969 L 0.742188 60.292969 Z M 0.742188 14.542969 " clip-rule="nonzero"/></clipPath><clipPath id="c946ea4b2b"><path d="M 19.199219 22.5 L 49.199219 22.5 L 49.199219 52.5 L 19.199219 52.5 Z M 19.199219 22.5 " clip-rule="nonzero"/></clipPath></defs><g clip-path="url(#877b0529d0)"><path fill="#7ed957" d="M 75.007812 37.472656 C 75.007812 50.136719 64.722656 60.421875 52.058594 60.421875 L 0.488281 60.421875 L 0.488281 14.527344 L 52.058594 14.527344 C 64.722656 14.527344 75.007812 24.808594 75.007812 37.472656 Z M 75.007812 37.472656 " fill-opacity="1" fill-rule="nonzero"/></g><g clip-path="url(#c946ea4b2b)"><path fill="#ffffff" d="M 46.238281 22.5 C 46.730469 22.5 47.226562 22.625 47.71875 22.871094 C 48.582031 23.363281 49.199219 24.226562 49.199219 25.214844 L 49.199219 49.785156 C 49.199219 50.773438 48.582031 51.636719 47.71875 52.007812 C 46.855469 52.5 45.621094 52.5 44.753906 52.007812 L 20.679688 39.660156 C 19.816406 39.167969 19.199219 38.300781 19.199219 37.4375 C 19.199219 36.449219 19.816406 35.585938 20.679688 35.214844 L 44.753906 22.871094 C 45.25 22.625 45.742188 22.5 46.238281 22.5 Z M 43.273438 45.214844 L 43.273438 29.785156 L 28.089844 37.5625 Z M 43.273438 45.214844 " fill-opacity="1" fill-rule="nonzero"/></g></svg>